<svg width="290" height="154" viewBox="0 0 290 154" fill="none" xmlns="http://www.w3.org/2000/svg">
<g clip-path="url(#clip0_69_3747)">
<path d="M4.82222 153.264H286.145C286.145 153.264 302.238 95.69 268.652 82.5522C235.065 69.4144 251.23 42.1302 234.363 24.6942C208.946 -1.57631 157.058 52.8148 128.176 52.8148C99.2949 52.8148 53.8109 26.0323 44.0142 67.3971C34.2174 108.762 -15.4681 112.655 4.82222 153.264Z" fill="#C3E8DF"/>
<path d="M207.944 7.69922H188.925V49.059H207.944V7.69922Z" fill="#0A423F"/>
<path d="M125.699 16.2803L207.944 39.5857V153.3H125.699V16.2803Z" fill="#FF9900"/>
<path d="M155.384 32.4999V153.3H159.754V37.1985L155.384 32.4999Z" fill="#CF8224"/>
<path d="M75.8357 44.4516V153.3H154.484V32.4999L75.8357 44.4516Z" fill="#FF9900"/>
<path d="M62.8599 43.5138L154.484 30.3254V21.1056L62.8599 39.4184V43.5138Z" fill="#2B827D"/>
<path d="M215.579 35.9769L121.615 10.7758V0L215.33 30.9336L215.579 35.9769Z" fill="#2B827D"/>
<path d="M210.004 2.77246H186.87V7.7042H210.004V2.77246Z" fill="#145450"/>
<path d="M220.197 92.1724H132.124L138.721 82.9526H212.573L220.197 92.1724Z" fill="#2B827D"/>
<path d="M155.384 74.5438H65.3015V76.85H155.384V74.5438Z" fill="#0A423F"/>
<path d="M220.197 94.0123H132.124V96.3185H220.197V94.0123Z" fill="#0A423F"/>
<path d="M131.355 49.8293H92.1584V71.599H131.355V49.8293Z" fill="#0A423F"/>
<path d="M129.234 55.7952L120.653 70.0632H115.719L126.874 51.8923H129.234V55.7952Z" fill="#7CBAB7"/>
<path d="M123.756 51.8416L112.494 70.0125H109.249L120.903 51.8416H123.756Z" fill="#7CBAB7"/>
<path d="M118.283 51.8416L107.021 70.0125H98.425L110.078 51.8416H118.283Z" fill="#7CBAB7"/>
<path d="M183.269 47.5282H160.908V76.8551H183.269V47.5282Z" fill="#0A423F"/>
<path d="M131.355 103.957H92.1584V146.472H131.355V103.957Z" fill="#0A423F"/>
<path d="M182.435 106.344H168.772V143.223H182.435V106.344Z" fill="#8F5A19"/>
<path d="M197.771 106.344H184.022V143.223H197.771V106.344Z" fill="#8F5A19"/>
<path d="M181.316 61.5834L173.37 74.8023H169.235L181.316 54.9891V61.5834Z" fill="#7CBAB7"/>
<path d="M181.316 52.4143L167.857 74.8023H163.284L178.66 49.5759H181.316V52.4143Z" fill="#7CBAB7"/>
<path d="M122.23 106.344L97.3518 144.308H94.5491V134.374L113.105 106.344H122.23Z" fill="#7CBAB7"/>
<path d="M129.667 117.637L113.008 144.308H109.763L129.697 113.146L129.667 117.637Z" fill="#7CBAB7"/>
<path d="M182.435 106.344H168.772V109.928H182.435V106.344Z" fill="#663F0F"/>
<path d="M197.725 106.344H184.062V109.928H197.725V106.344Z" fill="#663F0F"/>
</g>
<defs>
<clipPath id="clip0_69_3747">
<rect width="290" height="153.3" fill="white"/>
</clipPath>
</defs>
</svg>
