<svg width="290" height="142" viewBox="0 0 290 142" fill="none" xmlns="http://www.w3.org/2000/svg">
<path d="M285.241 141.148H9.61369C9.61369 141.148 -20.8809 87.6642 26.7523 71.622C60.2619 60.3392 48.1181 34.6402 85.5 19.5001C140.165 -2.63704 140.721 48.439 176 37.5C204.013 28.8136 247.5 28.5 261.599 66.0005C266.229 107.529 302.858 96.1214 285.241 141.148Z" fill="#C3E8DF"/>
<path d="M118.929 58.0467C121.241 57.2892 123.773 59.3922 124.047 62.2727C125.213 74.637 117.219 86.8069 104.267 91.033C91.3146 95.2591 77.6795 90.1509 71.3304 79.4761C69.8503 76.9893 70.6576 73.7998 72.97 73.0473L118.929 58.0467Z" stroke="#0A423F" stroke-width="6" stroke-miterlimit="10"/>
<path d="M106.345 97.417C97.2003 100.402 87.3627 95.4086 84.3775 86.2587L78.0882 66.9872C77.6496 65.6466 78.3822 64.2064 79.7228 63.7728L108 54.5482C109.34 54.1096 110.781 54.8422 111.214 56.1828L117.503 75.4543C120.489 84.5992 115.495 94.4368 106.345 97.417Z" fill="#2B827D"/>
<path d="M109.506 94.9733L102.356 97.306L104.171 102.868L111.321 100.536L109.506 94.9733Z" fill="#2B827D"/>
<path d="M113.985 106.691L105.642 109.412C104.875 109.662 104.048 109.243 103.798 108.476L102.363 104.075C102.114 103.308 102.533 102.48 103.3 102.231L111.643 99.5101C112.41 99.2609 113.237 99.6795 113.487 100.447L114.922 104.847C115.176 105.615 114.757 106.442 113.985 106.691Z" fill="#2B827D"/>
<path d="M123.803 115.796L103.096 122.554C101.481 123.082 99.7469 122.2 99.2186 120.586L96.7866 113.14C96.2583 111.526 97.1404 109.791 98.7551 109.263L119.462 102.505C121.077 101.977 122.811 102.859 123.339 104.474L125.771 111.919C126.294 113.534 125.412 115.273 123.803 115.796Z" fill="#2B827D"/>
<path d="M114.334 118.886L123.803 115.796C125.417 115.268 126.299 113.534 125.771 111.919L123.339 104.474C122.811 102.859 121.077 101.977 119.462 102.505L116.472 103.482C116.472 103.482 119.527 110.868 114.334 118.886Z" fill="#0A423F"/>
<path d="M104.611 55.6545L108.005 54.5482C109.345 54.1096 110.786 54.8422 111.219 56.1828L117.508 75.4543C120.494 84.5992 115.5 94.4368 106.35 97.422C106.345 97.417 122.731 91.4666 104.611 55.6545Z" fill="#0A423F"/>
<path d="M97.7135 71.1285L101.357 74.3629L105.632 73.72L103.494 78.0009L105.707 81.9728L101.162 81.0509L97.873 84.5294L97.1504 80.0093L92.9492 77.8763L97.0407 75.9826L97.7135 71.1285Z" fill="#0A423F"/>
<path d="M179.061 58.0467C176.748 57.2892 174.217 59.3922 173.943 62.2727C172.776 74.637 180.77 86.8069 193.722 91.033C206.675 95.2591 220.31 90.1509 226.659 79.4761C228.139 76.9893 227.332 73.7998 225.019 73.0473L179.061 58.0467Z" stroke="#0A423F" stroke-width="6" stroke-miterlimit="10"/>
<path d="M191.639 97.417C200.784 100.402 210.622 95.4086 213.607 86.2587L219.896 66.9872C220.335 65.6466 219.602 64.2064 218.262 63.7728L189.985 54.5482C188.644 54.1096 187.204 54.8422 186.77 56.1828L180.481 75.4543C177.496 84.5992 182.494 94.4368 191.639 97.417Z" fill="#2B827D"/>
<path d="M186.661 100.529L193.811 102.862L195.626 97.2999L188.476 94.9671L186.661 100.529Z" fill="#2B827D"/>
<path d="M183.999 106.691L192.342 109.412C193.109 109.662 193.937 109.243 194.186 108.476L195.621 104.075C195.87 103.308 195.452 102.48 194.684 102.231L186.342 99.5101C185.574 99.2609 184.747 99.6795 184.498 100.447L183.063 104.847C182.813 105.615 183.232 106.442 183.999 106.691Z" fill="#2B827D"/>
<path d="M174.187 115.796L194.894 122.554C196.508 123.082 198.243 122.2 198.771 120.586L201.203 113.14C201.731 111.526 200.849 109.791 199.234 109.263L178.527 102.505C176.913 101.977 175.178 102.859 174.65 104.474L172.218 111.919C171.69 113.534 172.572 115.273 174.187 115.796Z" fill="#2B827D"/>
<path d="M183.656 118.886L174.187 115.796C172.572 115.268 171.69 113.534 172.218 111.919L174.65 104.474C175.178 102.859 176.913 101.977 178.527 102.505L181.518 103.482C181.513 103.482 178.463 110.868 183.656 118.886Z" fill="#0A423F"/>
<path d="M193.379 55.6545L189.985 54.5482C188.644 54.1096 187.204 54.8422 186.77 56.1828L180.481 75.4543C177.496 84.5992 182.489 94.4368 191.639 97.422C191.639 97.417 175.258 91.4666 193.379 55.6545Z" fill="#0A423F"/>
<path d="M200.271 71.1285L196.628 74.3629L192.352 73.72L194.495 78.0009L192.277 81.9728L196.822 81.0509L200.111 84.5294L200.834 80.0093L205.04 77.8763L200.944 75.9826L200.271 71.1285Z" fill="#0A423F"/>
<path d="M202.788 15.5167C208.18 15.5167 212.067 21.6814 210.662 27.9308C204.627 54.7774 179.415 74.9111 149.224 74.9111C119.033 74.9111 93.8264 54.7725 87.7863 27.9308C86.3809 21.6764 90.2631 15.5167 95.6604 15.5167H202.788Z" stroke="#8F5A19" stroke-width="10" stroke-miterlimit="10"/>
<path d="M149.224 89.8021C127.904 89.8021 110.621 72.519 110.621 51.1992V6.28213C110.621 3.1624 113.153 0.630737 116.272 0.630737H182.175C185.295 0.630737 187.827 3.1624 187.827 6.28213V51.1992C187.827 72.519 170.544 89.8021 149.224 89.8021Z" fill="#FF9900"/>
<path d="M157.556 86.8119H140.891V99.7742H157.556V86.8119Z" fill="#FF9900"/>
<path d="M158.947 114.59H139.501C137.712 114.59 136.262 113.14 136.262 111.351V101.095C136.262 99.3058 137.712 97.8556 139.501 97.8556H158.947C160.736 97.8556 162.186 99.3058 162.186 101.095V111.351C162.186 113.135 160.736 114.59 158.947 114.59Z" fill="#FF9900"/>
<path d="M173.355 140.515H125.088C121.326 140.515 118.276 137.465 118.276 133.703V116.345C118.276 112.582 121.326 109.532 125.088 109.532H173.355C177.117 109.532 180.167 112.582 180.167 116.345V133.703C180.167 137.465 177.117 140.515 173.355 140.515Z" fill="#FF9900"/>
<path d="M151.287 140.515H173.355C177.117 140.515 180.167 137.465 180.167 133.703V116.345C180.167 112.582 177.117 109.532 173.355 109.532H166.387C166.387 109.532 167.743 127.194 151.287 140.515Z" fill="#D4821C"/>
<path d="M174.272 0.630737H182.175C185.295 0.630737 187.827 3.1624 187.827 6.28213V51.1992C187.827 72.519 170.544 89.8021 149.224 89.8021C149.224 89.8021 187.827 88.5213 174.272 0.630737Z" fill="#D4821C"/>
<path d="M149.114 28.489L154.566 37.8083L164.01 39.3931L156.56 46.9383L158.493 56.8257L149.558 51.7574L140.239 56.8257L141.823 46.8087L134.438 39.423L144.355 38.2519L149.114 28.489Z" fill="#8F5A19"/>
</svg>
