<svg width="175" height="186" viewBox="0 0 175 186" fill="none" xmlns="http://www.w3.org/2000/svg">
<path d="M158.223 19.4504C165.343 19.4504 170.478 27.648 168.616 35.9695C160.643 71.6769 127.359 98.4678 87.4959 98.4678C47.6332 98.4678 14.3487 71.6769 6.38436 35.9695C4.52246 27.648 9.65703 19.4504 16.7765 19.4504H158.223Z" stroke="#8F5A19" stroke-width="12" stroke-miterlimit="10"/>
<path d="M88.0995 119.134C60.0939 119.134 37.3925 96.0441 37.3925 67.5595V7.55272C37.3925 3.38628 40.7136 0 44.8182 0H131.389C135.485 0 138.815 3.37798 138.815 7.55272V67.5595C138.807 96.0441 116.105 119.134 88.0995 119.134Z" fill="#FF9900"/>
<path d="M98.9703 114.271H77.2369V131.29H98.9703V114.271Z" fill="#FF9900"/>
<path d="M100.78 151.956H75.428C73.0954 151.956 71.2001 149.951 71.2001 147.483V133.333C71.2001 130.865 73.0954 128.859 75.428 128.859H100.78C103.112 128.859 105.007 130.865 105.007 133.333V147.483C105.007 149.951 103.112 151.956 100.78 151.956Z" fill="#FF9900"/>
<path d="M120.116 185.995H56.0913C51.0979 185.995 47.052 181.926 47.052 176.905V153.753C47.052 148.731 51.0979 144.663 56.0913 144.663H120.116C125.11 144.663 129.156 148.731 129.156 153.753V176.905C129.156 181.926 125.11 185.995 120.116 185.995Z" fill="#FF9900"/>
<path d="M90.5184 185.995H120.038C125.075 185.995 129.155 181.926 129.155 176.905V153.753C129.155 148.731 125.075 144.663 120.038 144.663H110.714C110.714 144.671 112.526 168.229 90.5184 185.995Z" fill="#D4821C"/>
<path d="M121 0H131.389C135.485 0 138.815 3.37798 138.815 7.55272V67.5595C138.815 96.0441 116.112 119.134 88.1038 119.134C88.0956 119.134 138.807 117.424 121 0Z" fill="#D4821C"/>
<path d="M87.9537 36.4692L95.0789 48.8602L107.422 50.9667L97.692 61.0034L100.216 74.1544L88.538 67.4055L76.365 74.1544L78.4344 60.83L68.7853 51.008L81.7454 49.455L87.9537 36.4692Z" fill="#8F5A19"/>
</svg>
