<svg width="290" height="178" viewBox="0 0 290 178" fill="none" xmlns="http://www.w3.org/2000/svg">
<g clip-path="url(#clip0_69_3862)">
<path d="M285.241 177.7H9.61344C9.61344 177.7 -20.8811 124.216 26.752 108.174C60.2567 96.8909 41.9669 57.2664 79.3538 42.1263C134.019 19.9892 148.616 71.6142 183.895 60.6752C211.907 51.9888 257.328 64.1737 261.599 102.547C266.228 144.081 302.858 132.673 285.241 177.7Z" fill="#C3E8DF"/>
<path d="M173.334 176.344H117.588C111.478 176.344 106.524 171.391 106.524 165.281V52.1931C106.524 46.0832 111.478 41.1295 117.588 41.1295H173.334C179.444 41.1295 184.398 46.0832 184.398 52.1931V165.281C184.398 171.391 179.444 176.344 173.334 176.344Z" fill="white" stroke="#0A423F" stroke-width="5" stroke-miterlimit="10" stroke-linecap="round"/>
<path d="M215.381 127.889H143.144C139.087 127.889 135.798 124.6 135.798 120.543V91.3591C135.798 87.3025 139.087 84.0133 143.144 84.0133H208.035C212.092 84.0133 215.381 87.3025 215.381 91.3591V127.889Z" fill="#FF9900"/>
<path d="M71.7139 163.068H145.65C148.93 163.068 151.591 160.407 151.591 157.128V140.437C151.591 137.158 148.93 134.497 145.65 134.497H77.6543C74.3751 134.497 71.7139 137.158 71.7139 140.437V163.068Z" fill="#FF9900"/>
<path d="M224.979 127.889C228.133 127.889 230.69 125.332 230.69 122.178C230.69 119.023 228.133 116.466 224.979 116.466C221.825 116.466 219.268 119.023 219.268 122.178C219.268 125.332 221.825 127.889 224.979 127.889Z" fill="#2B827D"/>
<path d="M62.1902 163.178C65.3444 163.178 67.9014 160.621 67.9014 157.466C67.9014 154.312 65.3444 151.755 62.1902 151.755C59.036 151.755 56.479 154.312 56.479 157.466C56.479 160.621 59.036 163.178 62.1902 163.178Z" fill="#2B827D"/>
<path d="M180.346 0H110.576C108.338 0 106.524 1.81403 106.524 4.05166V26.4579C106.524 28.6955 108.338 30.5095 110.576 30.5095H135.335L164.13 53.743L160.322 30.5095H180.341C182.579 30.5095 184.393 28.6955 184.393 26.4579V4.05166C184.398 1.81403 182.584 0 180.346 0Z" fill="#FF9900"/>
<path d="M145.461 26.0542C151.31 26.0542 156.051 21.3128 156.051 15.464C156.051 9.61526 151.31 4.8739 145.461 4.8739C139.612 4.8739 134.871 9.61526 134.871 15.464C134.871 21.3128 139.612 26.0542 145.461 26.0542Z" stroke="#0A423F" stroke-width="2" stroke-miterlimit="10" stroke-linecap="round"/>
<path d="M139.521 16.396L143.253 19.9044L151.71 11.4473" stroke="#0A423F" stroke-width="2" stroke-miterlimit="10" stroke-linecap="round"/>
</g>
<defs>
<clipPath id="clip0_69_3862">
<rect width="290" height="177.7" fill="white"/>
</clipPath>
</defs>
</svg>
