<svg width="360" height="640" viewBox="0 0 360 640" fill="none" xmlns="http://www.w3.org/2000/svg">
<g clip-path="url(#clip0_416_892)">
<path opacity="0.7" d="M360.18 0H0.440002V508.755H360.18V0Z" fill="url(#paint0_linear_416_892)"/>
<path d="M360.04 309C360.04 309 346.04 294.705 272.145 320.5C211.24 341.75 161.145 384.32 106.59 384.32V406.225H360.04V309Z" fill="#E8E9C2"/>
<path d="M-0.184998 347.5C-0.184998 347.5 47.89 336.5 97.42 368.595C145.965 400.06 267.56 396.555 267.56 396.555L2.44379e-06 416.29L-0.184998 347.5Z" fill="#D6E9A0"/>
<path d="M-0.130005 371.83C-0.130005 371.83 38.44 393 91.34 395.045C175.94 398.33 183.34 363.28 238.075 369.985C293.93 376.83 343.115 353.735 359.91 345.68V389.82L-0.130005 436.025V371.83Z" fill="#C1D489"/>
<path d="M-2.08499 425.205H17.94L7.93001 366L-2.08499 425.205Z" fill="#929F42"/>
<path d="M10.76 442.51L30.78 431.51L20.77 372.305L10.76 442.51Z" fill="#929F42"/>
<path d="M23.485 437.245H43.51L33.495 378.04L23.485 437.245Z" fill="#929F42"/>
<path d="M32.425 444.81H52.45L42.44 385.605L32.425 444.81Z" fill="#929F42"/>
<path d="M37.815 448.825H57.84L47.83 389.62L37.815 448.825Z" fill="#929F42"/>
<path d="M48.365 467.735L68.39 456.735L58.375 397.525L48.365 467.735Z" fill="#929F42"/>
<path d="M55.47 459.37H75.495L65.485 400.165L55.47 459.37Z" fill="#929F42"/>
<path d="M0 421.29C0 421.29 41.34 414.75 96.845 421.52C180 431.665 230.3 388.39 289.115 382.31C348.985 376.12 360.04 383.23 360.04 383.23V408.91L0 474.03V421.29Z" fill="#99A93A"/>
<path d="M360.04 403.725C360.04 403.725 267.56 388 176.3 426.045C83.39 464.785 0 442.555 0 442.555V476.03L360.04 423.29V403.725Z" fill="#64790E"/>
<path d="M-17.145 137.115C-17.145 137.115 11.175 135.165 61.735 84.615C106.925 39.425 158.67 99.69 207.735 103.36C256.8 107.03 348.93 61.215 378.5 14.095C378.5 14.095 331.5 81.455 289.075 98.02C241.61 116.555 195.865 108.68 169.725 99.05C143.585 89.42 119.5 73.84 87.58 82.655C55.66 91.47 11.29 145.825 -17.145 137.115Z" fill="white" fill-opacity="0.7"/>
<path d="M-8.58502 211.1L378.5 96.64C378.5 96.64 355.355 103.64 323.43 103.64C304.31 103.64 304.93 118.315 285.825 108.685C268.17 99.78 237.27 100.575 224.65 102.91C212.03 105.245 212.155 92.5 193.5 91.56C180.825 90.935 181.945 111.645 175.615 113.265C142.75 121.675 174.085 139.56 160.785 151.94C152.42 159.73 147.045 173.9 84.66 169.065C69.87 167.915 79.16 188.02 45.525 180.065C32.92 177.065 44.565 193.255 14.265 198.1C4.71498 199.635 -8.58502 211.1 -8.58502 211.1Z" fill="white" fill-opacity="0.7"/>
<path d="M-18.41 228.22C-18.41 228.22 31.965 231.16 104.34 242.44C173.015 253.14 197.17 215.79 226.34 196.94C259.34 175.615 304.78 148.54 360.515 146.495V141.355C360.515 141.355 316.605 146.78 290.72 160.855C290.72 160.855 339.27 137.585 360.555 136.355L360.515 131.755C278.055 157.11 278.25 157.255 216.365 198.825C178.16 224.485 123.08 240.325 92.89 234.06C43.21 223.72 -18.41 228.22 -18.41 228.22Z" fill="white" fill-opacity="0.7"/>
<path d="M92.815 443.56V453.29L243.025 430.905V422.97L92.815 443.56Z" fill="#5E5D52"/>
<path opacity="0.45" d="M92.815 453.29V444.02L179.95 431.355L177.62 440.54L92.815 453.29Z" fill="url(#paint1_linear_416_892)"/>
<path d="M132.715 345.19L216.865 332.81L180.75 431.635L92.815 444.02L132.715 345.19Z" fill="#8AB5A1"/>
<path d="M216.865 332.81L243.025 423.23L180.75 431.635L216.865 332.81Z" fill="#5E5D52"/>
<path d="M134.28 341.385L90.45 450.71" stroke="#8AB5A1" stroke-width="3" stroke-miterlimit="10" stroke-linecap="round"/>
<path opacity="0.3" d="M144.125 344.88L135.125 346.16L101.77 427.765L107.54 434.76L144.125 344.88Z" fill="url(#paint2_linear_416_892)"/>
<path opacity="0.3" d="M155.91 343.415L146.915 344.68L112.365 428.59L118.135 435.585L155.91 343.415Z" fill="url(#paint3_linear_416_892)"/>
<path opacity="0.3" d="M168.135 341.705L159.23 342.845L124.61 427.235L130.38 434.23L168.135 341.705Z" fill="url(#paint4_linear_416_892)"/>
<path opacity="0.3" d="M179.95 339.71L171.425 340.695L140.615 416.405L146.17 423.4L179.95 339.71Z" fill="url(#paint5_linear_416_892)"/>
<path opacity="0.3" d="M191.615 338.105L182.69 339.6L153.535 410.76L159.305 417.755L191.615 338.105Z" fill="url(#paint6_linear_416_892)"/>
<path opacity="0.3" d="M203.065 336.745L194.5 337.595L163.72 412.89L169.385 419.99L203.065 336.745Z" fill="url(#paint7_linear_416_892)"/>
<path opacity="0.3" d="M214.995 335.375L206.325 336.33L175.545 411.63L181.315 418.625L214.995 335.375Z" fill="url(#paint8_linear_416_892)"/>
<path d="M220.505 431.355L208.18 433.185V405.895L220.505 404.06V431.355Z" fill="#392B31"/>
<path d="M220.505 395.995L208.18 397.83V389.665L220.505 387.83V395.995Z" fill="#392B31" stroke="#848476" stroke-width="2" stroke-miterlimit="10"/>
<path d="M208.18 405.895V407.695L219.035 406.03V431.025L220.505 431.355V404.06L208.18 405.895Z" fill="#848476"/>
<path d="M214.345 388.745V396.875" stroke="#848476" stroke-width="2" stroke-miterlimit="10"/>
<path d="M220.505 381.53L208.18 383.365V375.2L220.505 373.365V381.53Z" fill="#392B31" stroke="#848476" stroke-width="2" stroke-miterlimit="10"/>
<path d="M214.345 374.285V382.415" stroke="#848476" stroke-width="2" stroke-miterlimit="10"/>
<path d="M318.005 422.97H367.025L342.515 278.035L318.005 422.97Z" fill="#4A5A08"/>
<path d="M297.11 440.51H334.525L315.815 329.89L297.11 440.51Z" fill="#4A5A08"/>
<path d="M273.73 449.9H301.305L287.515 368.375L273.73 449.9Z" fill="#4A5A08"/>
<path d="M22.92 494.05H50.495L36.705 412.525L22.92 494.05Z" fill="#4A5A08"/>
<path d="M-3.84 484.78H33.495L14.83 403.255L-3.84 484.78Z" fill="#4A5A08"/>
<path d="M-0.265015 467.485L360.04 412.91V640.075H-0.0400147L-0.265015 467.485Z" fill="url(#paint9_linear_416_892)"/>
<path opacity="0.55" d="M14.81 664.25C14.81 664.25 201.81 618.25 264.62 592.68C359.895 553.895 423.07 509.445 168.915 568.95C-147.93 643.125 -31.06 556 -31.06 556C-31.06 556 179.89 514.175 164.34 508.08C152.34 503.375 52.42 512.91 116.42 498.45C178.485 484.45 442.42 420 442.42 420L-7.21501 486.745L-4.92001 501.42C-4.92001 501.42 208.18 459.825 180.75 471.15C155.065 481.76 6.64499 505.09 46.5 509.215C86.355 513.34 139.315 506.715 133.12 512.885C126.925 519.055 -2.63001 537.65 -2.63001 537.65H-41.63L-28.21 612.705C-28.21 612.705 53 606 122.57 588.555C214.195 565.59 388.325 534.895 247.07 590.16C192.865 611.37 14.81 664.25 14.81 664.25Z" fill="#718B2B"/>
<path opacity="0.44" d="M208.945 354.37L242.28 422.97L216.7 334.835L208.945 354.37Z" fill="url(#paint10_linear_416_892)"/>
<path d="M217.94 329.89L178.125 438.26" stroke="#8AB5A1" stroke-width="3" stroke-miterlimit="10" stroke-linecap="round"/>
<path d="M216.7 333.265L243.865 425.905" stroke="#8AB5A1" stroke-width="3" stroke-miterlimit="10" stroke-linecap="round"/>
</g>
<defs>
<linearGradient id="paint0_linear_416_892" x1="180.31" y1="508.755" x2="180.31" y2="0" gradientUnits="userSpaceOnUse">
<stop stop-color="white"/>
<stop offset="0.427083" stop-color="#F5FBFB"/>
<stop offset="1" stop-color="#B5E2E4"/>
</linearGradient>
<linearGradient id="paint1_linear_416_892" x1="145.92" y1="458.84" x2="126.225" y2="424.73" gradientUnits="userSpaceOnUse">
<stop stop-opacity="0"/>
<stop offset="1"/>
</linearGradient>
<linearGradient id="paint2_linear_416_892" x1="109.411" y1="436.068" x2="130.351" y2="342.231" gradientUnits="userSpaceOnUse">
<stop offset="0.11" stop-color="#F5F2CB" stop-opacity="0"/>
<stop offset="0.76" stop-color="#FBF5C1" stop-opacity="0.73"/>
<stop offset="1" stop-color="#FDF6BE"/>
</linearGradient>
<linearGradient id="paint3_linear_416_892" x1="120.386" y1="436.987" x2="141.87" y2="340.709" gradientUnits="userSpaceOnUse">
<stop offset="0.12" stop-color="#F5F2CB" stop-opacity="0"/>
<stop offset="0.77" stop-color="#FBF5C1" stop-opacity="0.73"/>
<stop offset="1" stop-color="#FDF6BE"/>
</linearGradient>
<linearGradient id="paint4_linear_416_892" x1="132.644" y1="435.634" x2="154.203" y2="339.022" gradientUnits="userSpaceOnUse">
<stop offset="0.22" stop-color="#F5F2CB" stop-opacity="0"/>
<stop offset="0.79" stop-color="#FBF5C1" stop-opacity="0.73"/>
<stop offset="1" stop-color="#FDF6BE"/>
</linearGradient>
<linearGradient id="paint5_linear_416_892" x1="147.669" y1="424.586" x2="167.153" y2="337.28" gradientUnits="userSpaceOnUse">
<stop offset="0.25" stop-color="#F5F2CB" stop-opacity="0"/>
<stop offset="0.61" stop-color="#F9F4C4" stop-opacity="0.5"/>
<stop offset="0.88" stop-color="#FCF5C0" stop-opacity="0.86"/>
<stop offset="1" stop-color="#FDF6BE"/>
</linearGradient>
<linearGradient id="paint6_linear_416_892" x1="160.5" y1="418.851" x2="179.051" y2="335.724" gradientUnits="userSpaceOnUse">
<stop offset="0.31" stop-color="#F5F2CB" stop-opacity="0"/>
<stop offset="0.82" stop-color="#FBF5C1" stop-opacity="0.73"/>
<stop offset="1" stop-color="#FDF6BE"/>
</linearGradient>
<linearGradient id="paint7_linear_416_892" x1="170.94" y1="421.184" x2="190.325" y2="334.32" gradientUnits="userSpaceOnUse">
<stop offset="0.31" stop-color="#F5F2CB" stop-opacity="0"/>
<stop offset="0.82" stop-color="#FBF5C1" stop-opacity="0.73"/>
<stop offset="1" stop-color="#FDF6BE"/>
</linearGradient>
<linearGradient id="paint8_linear_416_892" x1="182.892" y1="419.822" x2="202.277" y2="332.957" gradientUnits="userSpaceOnUse">
<stop offset="0.41" stop-color="#F5F2CB" stop-opacity="0"/>
<stop offset="0.84" stop-color="#FBF5C1" stop-opacity="0.73"/>
<stop offset="1" stop-color="#FDF6BE"/>
</linearGradient>
<linearGradient id="paint9_linear_416_892" x1="139.95" y1="416.45" x2="237.565" y2="684.65" gradientUnits="userSpaceOnUse">
<stop stop-color="#D5D934"/>
<stop offset="0.416667" stop-color="#7C914F"/>
</linearGradient>
<linearGradient id="paint10_linear_416_892" x1="225.61" y1="422.97" x2="225.61" y2="334.835" gradientUnits="userSpaceOnUse">
<stop stop-opacity="0"/>
<stop offset="1"/>
</linearGradient>
<clipPath id="clip0_416_892">
<rect width="360" height="640" fill="white"/>
</clipPath>
</defs>
</svg>
