<svg width="290" height="154" viewBox="0 0 290 154" fill="none" xmlns="http://www.w3.org/2000/svg">
<path d="M285.176 153.561H3.85415C3.85415 153.561 -12.2397 95.7056 21.3468 82.5037C54.9332 69.3017 49.2567 38.3852 69.1247 24.3632C102.676 0.684273 134.69 41.3138 163.572 41.3138C192.453 41.3138 236.187 25.7028 245.984 67.2695C255.781 108.836 305.471 112.753 285.176 153.561Z" fill="#C3E8DF"/>
<path d="M147.661 51.9334H132.625C129.878 51.9334 127.656 49.7076 127.656 46.9572V8.97619C127.656 6.22579 129.878 4 132.625 4H147.661C150.408 4 152.631 6.22579 152.631 8.97619V46.9572C152.631 49.7025 150.403 51.9334 147.661 51.9334Z" stroke="#0A423F" stroke-width="4" stroke-miterlimit="10"/>
<path d="M127.656 8.97619C127.656 6.22579 129.878 4 132.625 4H147.661C150.408 4 152.631 6.22579 152.631 8.97619" stroke="#2B827D" stroke-width="7" stroke-miterlimit="10" stroke-linecap="round"/>
<path d="M169.228 142.656H111.058C107.64 142.656 104.868 139.88 104.868 136.457V54.1388C104.868 50.7161 107.64 47.9402 111.058 47.9402H169.228C172.646 47.9402 175.418 50.7161 175.418 54.1388V136.457C175.418 139.88 172.646 142.656 169.228 142.656Z" fill="#8F5A19"/>
<path d="M166.558 137.155H113.622C110.509 137.155 107.986 134.629 107.986 131.512V56.5989C107.986 53.4817 110.509 50.9554 113.622 50.9554H166.558C169.671 50.9554 172.193 53.4817 172.193 56.5989V131.512C172.193 134.629 169.671 137.155 166.558 137.155Z" fill="#FF9900"/>
<path d="M115.911 153.561C118.574 153.561 120.733 151.399 120.733 148.732C120.733 146.066 118.574 143.904 115.911 143.904C113.248 143.904 111.089 146.066 111.089 148.732C111.089 151.399 113.248 153.561 115.911 153.561Z" fill="#2B827D"/>
<path d="M163.572 153.561C166.235 153.561 168.394 151.399 168.394 148.732C168.394 146.066 166.235 143.904 163.572 143.904C160.909 143.904 158.75 146.066 158.75 148.732C158.75 151.399 160.909 153.561 163.572 153.561Z" fill="#2B827D"/>
<path d="M140.306 79.8602C153.155 79.8602 163.572 76.1272 163.572 71.5224C163.572 66.9175 153.155 63.1846 140.306 63.1846C127.457 63.1846 117.04 66.9175 117.04 71.5224C117.04 76.1272 127.457 79.8602 140.306 79.8602Z" fill="#FFC369"/>
<path d="M108.632 35.0694C111.943 33.6433 115.326 32.2528 118.769 30.9031" stroke="#0A423F" stroke-width="3" stroke-miterlimit="10" stroke-linecap="round"/>
<path d="M82.9042 47.5429C88.1382 44.6856 93.6622 41.8944 99.4405 39.1949" stroke="#0A423F" stroke-width="3" stroke-miterlimit="10" stroke-linecap="round"/>
<path d="M207.687 69.6175C191.924 80.3746 171.563 90.9331 148.556 99.7089C90.2644 121.941 37.0439 124.284 29.6887 104.945C24.943 92.4662 40.4519 74.013 67.7158 56.5123" stroke="#0A423F" stroke-width="3" stroke-miterlimit="10" stroke-linecap="round"/>
<path d="M139.222 84.0623C96.6632 100.29 60.4979 106.794 55.1265 92.6751" stroke="#0A423F" stroke-width="3" stroke-miterlimit="10" stroke-linecap="round"/>
<path d="M246.854 41.3138L243.756 47.2068L235.755 52.5701L234.458 76.3866L231.101 78.7855L226.04 59.548L220.378 63.5921L218.929 72.2508L216.304 74.12L213.99 65.0284L205.673 59.5633L208.491 57.5514L216.757 59.2067L222.332 55.2288L206.441 43.9471L209.915 41.4666L232.123 48.419L240.094 42.7349L246.854 41.3138Z" fill="#2B827D"/>
</svg>
