<svg width="360" height="236" viewBox="0 0 360 236" fill="none" xmlns="http://www.w3.org/2000/svg">
<g opacity="0.56">
<path opacity="0.6" d="M-20.6906 125.593C-20.6906 125.593 8.5255 123.604 60.7039 71.9855C107.321 25.8497 160.738 87.3741 211.344 91.1203C261.95 94.8665 357.025 48.1047 387.546 0C387.546 0 339.043 68.7694 295.277 85.6777C246.303 104.601 199.1 96.5629 172.128 86.7329C145.157 76.903 120.294 60.9943 87.3618 69.9962C54.4299 78.9982 8.64683 134.489 -20.6906 125.593Z" fill="white"/>
<path opacity="0.6" d="M-11.8585 201.123L387.53 84.2743C387.53 84.2743 363.663 91.4133 330.726 91.4133C311.01 91.4133 311.626 106.393 291.925 96.563C273.725 87.4752 241.824 88.283 228.806 90.666C215.788 93.0491 215.899 80.0232 196.658 79.0841C183.579 78.448 184.737 99.5923 178.205 101.248C144.292 109.831 176.628 128.088 162.902 140.73C154.272 148.682 148.746 163.146 84.3538 158.209C69.0961 157.037 78.6764 177.561 43.9548 169.427C30.9519 166.398 42.9437 182.892 11.7004 187.84C1.86226 189.42 -11.8585 201.123 -11.8585 201.123Z" fill="white"/>
<path opacity="0.6" d="M-22 218.607C-22 218.607 29.9812 221.606 104.657 233.117C175.516 244.043 200.434 205.914 230.54 186.669C264.61 164.898 311.475 137.261 368.982 135.171V129.92C368.982 129.92 323.679 135.474 296.965 149.812C296.965 149.812 347.066 126.058 369.027 124.791L368.982 120.09C283.881 145.975 284.094 146.137 220.232 188.562C180.799 214.76 123.979 230.931 92.8319 224.534C41.5837 214.008 -22 218.607 -22 218.607Z" fill="white"/>
</g>
</svg>
